<svg xmlns="http://www.w3.org/2000/svg" width="220" height="64" viewBox="0 0 220 64" role="img" aria-labelledby="title desc">
  <title id="title">Talon</title>
  <desc id="desc">Talon logo with attribution marker</desc>
  <style>
    .talon-mark { fill: #111111; }
    @media (prefers-color-scheme: dark) {
      .talon-mark { fill: #f3f4f6; }
    }
  </style>
  <g class="talon-mark" transform="translate(0 10) scale(0.140625)">
    <path d="M247 0h29v1h-29zM216 1h66v1h-66zM206 2h84v1h-84zM196 3h110v1h-110zM190 4h271v1h-271zM185 5h296v1h-296zM182 6h308v1h-308zM178 7h319v1h-319zM176 8h326v1h-326zM174 9h331v1h-331zM171 10h336v1h-336zM170 11h339v1h-339zM168 12h342v1h-342zM166 13h344v1h-344zM165 14h345v1h-345zM163 15h347v1h-347zM162 16h349v1h-349zM160 17h351v1h-351zM159 18h352v1h-352zM158 19h353v1h-353zM157 20h354v1h-354zM155 21h356v1h-356zM154 22h357v1h-357zM152 23h359v1h-359zM151 24h361v1h-361zM150 25h362v1h-362zM148 26h364v1h-364zM147 27h365v1h-365zM145 28h367v1h-367zM143 29h369v1h-369zM142 30h370v1h-370zM140 31h372v1h-372zM138 32h374v1h-374zM136 33h376v1h-376zM134 34h378v1h-378zM132 35h380v1h-380zM130 36h382v1h-382zM128 37h384v1h-384zM126 38h386v1h-386zM124 39h388v1h-388zM122 40h390v1h-390zM120 41h392v1h-392zM117 42h395v1h-395zM115 43h397v1h-397zM113 44h399v1h-399zM110 45h67v1h-67zM178 45h333v1h-333zM108 46h67v1h-67zM176 46h335v1h-335zM105 47h69v1h-69zM175 47h156v1h-156zM348 47h162v1h-162zM103 48h69v1h-69zM174 48h152v1h-152zM355 48h154v1h-154zM100 49h71v1h-71zM173 49h150v1h-150zM361 49h147v1h-147zM98 50h71v1h-71zM171 50h149v1h-149zM366 50h141v1h-141zM98 51h70v1h-70zM170 51h148v1h-148zM370 51h136v1h-136zM97 52h69v1h-69zM169 52h147v1h-147zM374 52h131v1h-131zM96 53h69v1h-69zM168 53h147v1h-147zM377 53h127v1h-127zM96 54h68v1h-68zM166 54h147v1h-147zM381 54h121v1h-121zM95 55h67v1h-67zM165 55h147v1h-147zM385 55h116v1h-116zM95 56h66v1h-66zM164 56h147v1h-147zM388 56h112v1h-112zM94 57h65v1h-65zM163 57h147v1h-147zM391 57h107v1h-107zM93 58h65v1h-65zM162 58h147v1h-147zM395 58h102v1h-102zM93 59h63v1h-63zM160 59h148v1h-148zM399 59h96v1h-96zM92 60h63v1h-63zM159 60h148v1h-148zM402 60h92v1h-92zM91 61h62v1h-62zM158 61h148v1h-148zM406 61h86v1h-86zM91 62h61v1h-61zM157 62h149v1h-149zM409 62h81v1h-81zM90 63h61v1h-61zM155 63h150v1h-150zM413 63h75v1h-75zM89 64h60v1h-60zM154 64h150v1h-150zM418 64h68v1h-68zM89 65h59v1h-59zM153 65h151v1h-151zM422 65h61v1h-61zM88 66h58v1h-58zM152 66h151v1h-151zM427 66h53v1h-53zM87 67h58v1h-58zM150 67h152v1h-152zM432 67h44v1h-44zM86 68h58v1h-58zM149 68h153v1h-153zM438 68h34v1h-34zM86 69h56v1h-56zM148 69h153v1h-153zM449 69h14v1h-14zM85 70h56v1h-56zM147 70h154v1h-154zM84 71h56v1h-56zM146 71h154v1h-154zM83 72h55v1h-55zM144 72h156v1h-156zM83 73h54v1h-54zM143 73h157v1h-157zM82 74h54v1h-54zM142 74h157v1h-157zM81 75h53v1h-53zM141 75h158v1h-158zM80 76h53v1h-53zM140 76h107v1h-107zM248 76h50v1h-50zM79 77h52v1h-52zM138 77h160v1h-160zM79 78h51v1h-51zM137 78h111v1h-111zM249 78h49v1h-49zM78 79h51v1h-51zM136 79h112v1h-112zM249 79h48v1h-48zM77 80h51v1h-51zM135 80h113v1h-113zM249 80h48v1h-48zM76 81h50v1h-50zM133 81h115v1h-115zM250 81h47v1h-47zM75 82h50v1h-50zM132 82h116v1h-116zM250 82h47v1h-47zM74 83h50v1h-50zM131 83h117v1h-117zM250 83h46v1h-46zM73 84h49v1h-49zM130 84h118v1h-118zM250 84h46v1h-46zM72 85h49v1h-49zM129 85h119v1h-119zM250 85h46v1h-46zM71 86h49v1h-49zM127 86h121v1h-121zM250 86h46v1h-46zM70 87h48v1h-48zM126 87h122v1h-122zM250 87h45v1h-45zM69 88h48v1h-48zM125 88h123v1h-123zM250 88h45v1h-45zM69 89h47v1h-47zM124 89h123v1h-123zM249 89h46v1h-46zM68 90h47v1h-47zM123 90h124v1h-124zM249 90h46v1h-46zM67 91h47v1h-47zM121 91h126v1h-126zM249 91h45v1h-45zM66 92h46v1h-46zM120 92h64v1h-64zM191 92h56v1h-56zM249 92h45v1h-45zM65 93h46v1h-46zM119 93h62v1h-62zM195 93h51v1h-51zM249 93h45v1h-45zM64 94h46v1h-46zM118 94h62v1h-62zM198 94h48v1h-48zM248 94h46v1h-46zM63 95h46v1h-46zM117 95h62v1h-62zM200 95h45v1h-45zM248 95h46v1h-46zM62 96h46v1h-46zM116 96h62v1h-62zM203 96h42v1h-42zM248 96h46v1h-46zM61 97h46v1h-46zM115 97h62v1h-62zM205 97h40v1h-40zM247 97h47v1h-47zM60 98h45v1h-45zM113 98h64v1h-64zM207 98h37v1h-37zM247 98h46v1h-46zM59 99h45v1h-45zM112 99h64v1h-64zM209 99h35v1h-35zM247 99h46v1h-46zM58 100h45v1h-45zM111 100h65v1h-65zM211 100h32v1h-32zM246 100h47v1h-47zM57 101h45v1h-45zM110 101h65v1h-65zM213 101h30v1h-30zM246 101h47v1h-47zM56 102h45v1h-45zM109 102h66v1h-66zM215 102h27v1h-27zM245 102h48v1h-48zM55 103h45v1h-45zM107 103h68v1h-68zM216 103h26v1h-26zM245 103h48v1h-48zM54 104h45v1h-45zM106 104h68v1h-68zM218 104h23v1h-23zM245 104h48v1h-48zM53 105h45v1h-45zM105 105h69v1h-69zM220 105h20v1h-20zM244 105h49v1h-49zM52 106h45v1h-45zM104 106h70v1h-70zM222 106h18v1h-18zM244 106h49v1h-49zM51 107h45v1h-45zM103 107h70v1h-70zM223 107h16v1h-16zM243 107h49v1h-49zM50 108h44v1h-44zM102 108h71v1h-71zM225 108h13v1h-13zM243 108h49v1h-49zM49 109h44v1h-44zM101 109h72v1h-72zM226 109h12v1h-12zM242 109h50v1h-50zM48 110h44v1h-44zM100 110h73v1h-73zM228 110h9v1h-9zM242 110h50v1h-50zM46 111h45v1h-45zM98 111h75v1h-75zM230 111h6v1h-6zM241 111h51v1h-51zM45 112h45v1h-45zM97 112h75v1h-75zM231 112h4v1h-4zM241 112h51v1h-51zM44 113h45v1h-45zM96 113h76v1h-76zM233 113h1v1h-1zM240 113h52v1h-52zM43 114h45v1h-45zM95 114h77v1h-77zM240 114h52v1h-52zM42 115h45v1h-45zM94 115h78v1h-78zM239 115h53v1h-53zM41 116h46v1h-46zM93 116h79v1h-79zM239 116h53v1h-53zM40 117h46v1h-46zM92 117h79v1h-79zM238 117h54v1h-54zM39 118h46v1h-46zM91 118h80v1h-80zM238 118h54v1h-54zM38 119h46v1h-46zM90 119h81v1h-81zM238 119h54v1h-54zM37 120h46v1h-46zM89 120h82v1h-82zM239 120h53v1h-53zM36 121h46v1h-46zM88 121h83v1h-83zM240 121h52v1h-52zM35 122h46v1h-46zM87 122h84v1h-84zM241 122h51v1h-51zM34 123h46v1h-46zM86 123h84v1h-84zM241 123h51v1h-51zM33 124h46v1h-46zM85 124h85v1h-85zM242 124h50v1h-50zM32 125h47v1h-47zM84 125h86v1h-86zM243 125h49v1h-49zM31 126h47v1h-47zM83 126h87v1h-87zM243 126h49v1h-49zM30 127h47v1h-47zM82 127h88v1h-88zM244 127h48v1h-48zM29 128h47v1h-47zM81 128h89v1h-89zM244 128h48v1h-48zM28 129h48v1h-48zM80 129h89v1h-89zM245 129h47v1h-47zM27 130h48v1h-48zM79 130h90v1h-90zM245 130h47v1h-47zM26 131h48v1h-48zM78 131h91v1h-91zM245 131h47v1h-47zM26 132h47v1h-47zM77 132h92v1h-92zM246 132h46v1h-46zM25 133h48v1h-48zM76 133h93v1h-93zM246 133h46v1h-46zM24 134h48v1h-48zM75 134h94v1h-94zM247 134h45v1h-45zM23 135h48v1h-48zM74 135h94v1h-94zM247 135h45v1h-45zM22 136h49v1h-49zM74 136h94v1h-94zM247 136h45v1h-45zM22 137h48v1h-48zM73 137h95v1h-95zM247 137h45v1h-45zM21 138h49v1h-49zM72 138h95v1h-95zM248 138h44v1h-44zM20 139h49v1h-49zM72 139h94v1h-94zM248 139h44v1h-44zM20 140h49v1h-49zM71 140h94v1h-94zM248 140h44v1h-44zM19 141h49v1h-49zM71 141h92v1h-92zM248 141h44v1h-44zM19 142h49v1h-49zM71 142h59v1h-59zM131 142h31v1h-31zM249 142h43v1h-43zM19 143h48v1h-48zM71 143h59v1h-59zM131 143h30v1h-30zM249 143h43v1h-43zM19 144h48v1h-48zM72 144h58v1h-58zM131 144h29v1h-29zM249 144h43v1h-43zM19 145h47v1h-47zM72 145h58v1h-58zM131 145h28v1h-28zM249 145h43v1h-43zM19 146h47v1h-47zM71 146h59v1h-59zM131 146h27v1h-27zM249 146h44v1h-44zM18 147h48v1h-48zM71 147h59v1h-59zM131 147h27v1h-27zM249 147h44v1h-44zM18 148h47v1h-47zM70 148h59v1h-59zM132 148h26v1h-26zM250 148h43v1h-43zM18 149h47v1h-47zM70 149h59v1h-59zM132 149h25v1h-25zM250 149h43v1h-43zM18 150h47v1h-47zM69 150h60v1h-60zM132 150h25v1h-25zM250 150h43v1h-43zM18 151h47v1h-47zM69 151h60v1h-60zM132 151h25v1h-25zM250 151h43v1h-43zM18 152h47v1h-47zM69 152h60v1h-60zM132 152h26v1h-26zM250 152h43v1h-43zM17 153h48v1h-48zM68 153h61v1h-61zM132 153h26v1h-26zM250 153h43v1h-43zM17 154h47v1h-47zM68 154h60v1h-60zM133 154h25v1h-25zM250 154h43v1h-43zM17 155h47v1h-47zM68 155h60v1h-60zM133 155h25v1h-25zM250 155h43v1h-43zM17 156h47v1h-47zM67 156h61v1h-61zM133 156h26v1h-26zM250 156h43v1h-43zM17 157h47v1h-47zM67 157h60v1h-60zM133 157h26v1h-26zM250 157h43v1h-43zM16 158h48v1h-48zM67 158h60v1h-60zM133 158h27v1h-27zM250 158h44v1h-44zM16 159h48v1h-48zM66 159h61v1h-61zM133 159h28v1h-28zM251 159h43v1h-43zM16 160h47v1h-47zM66 160h61v1h-61zM134 160h29v1h-29zM251 160h44v1h-44zM16 161h47v1h-47zM66 161h60v1h-60zM134 161h31v1h-31zM251 161h45v1h-45zM16 162h47v1h-47zM66 162h60v1h-60zM134 162h35v1h-35zM251 162h47v1h-47zM15 163h48v1h-48zM65 163h61v1h-61zM134 163h39v1h-39zM251 163h48v1h-48zM15 164h48v1h-48zM65 164h60v1h-60zM135 164h41v1h-41zM251 164h49v1h-49zM15 165h47v1h-47zM65 165h60v1h-60zM135 165h43v1h-43zM251 165h49v1h-49zM14 166h48v1h-48zM65 166h59v1h-59zM135 166h45v1h-45zM251 166h50v1h-50zM14 167h48v1h-48zM65 167h59v1h-59zM135 167h46v1h-46zM251 167h51v1h-51zM14 168h29v1h-29zM44 168h17v1h-17zM64 168h28v1h-28zM93 168h30v1h-30zM136 168h46v1h-46zM251 168h51v1h-51zM13 169h30v1h-30zM46 169h15v1h-15zM64 169h27v1h-27zM94 169h29v1h-29zM136 169h46v1h-46zM251 169h51v1h-51zM13 170h29v1h-29zM47 170h13v1h-13zM64 170h27v1h-27zM95 170h27v1h-27zM136 170h47v1h-47zM251 170h52v1h-52zM13 171h29v1h-29zM48 171h12v1h-12zM64 171h27v1h-27zM96 171h25v1h-25zM136 171h47v1h-47zM251 171h52v1h-52zM12 172h29v1h-29zM49 172h10v1h-10zM64 172h26v1h-26zM97 172h24v1h-24zM137 172h46v1h-46zM251 172h52v1h-52zM12 173h29v1h-29zM50 173h9v1h-9zM64 173h26v1h-26zM98 173h22v1h-22zM137 173h46v1h-46zM251 173h53v1h-53zM11 174h30v1h-30zM52 174h5v1h-5zM64 174h26v1h-26zM99 174h20v1h-20zM137 174h46v1h-46zM251 174h53v1h-53zM11 175h29v1h-29zM64 175h25v1h-25zM101 175h17v1h-17zM138 175h44v1h-44zM251 175h53v1h-53zM10 176h30v1h-30zM64 176h25v1h-25zM103 176h14v1h-14zM138 176h44v1h-44zM251 176h54v1h-54zM9 177h30v1h-30zM63 177h26v1h-26zM105 177h11v1h-11zM138 177h44v1h-44zM251 177h55v1h-55zM8 178h31v1h-31zM63 178h26v1h-26zM107 178h6v1h-6zM139 178h43v1h-43zM251 178h55v1h-55zM8 179h31v1h-31zM63 179h25v1h-25zM139 179h43v1h-43zM251 179h56v1h-56zM7 180h31v1h-31zM63 180h25v1h-25zM140 180h41v1h-41zM251 180h56v1h-56zM6 181h32v1h-32zM63 181h25v1h-25zM140 181h41v1h-41zM251 181h57v1h-57zM6 182h31v1h-31zM63 182h25v1h-25zM141 182h40v1h-40zM251 182h57v1h-57zM5 183h32v1h-32zM63 183h24v1h-24zM141 183h39v1h-39zM251 183h57v1h-57zM4 184h33v1h-33zM64 184h23v1h-23zM142 184h38v1h-38zM251 184h58v1h-58zM4 185h32v1h-32zM64 185h23v1h-23zM142 185h38v1h-38zM251 185h58v1h-58zM3 186h33v1h-33zM64 186h23v1h-23zM143 186h37v1h-37zM251 186h59v1h-59zM3 187h33v1h-33zM64 187h23v1h-23zM143 187h36v1h-36zM251 187h59v1h-59zM3 188h32v1h-32zM64 188h23v1h-23zM144 188h35v1h-35zM251 188h59v1h-59zM2 189h33v1h-33zM64 189h23v1h-23zM145 189h34v1h-34zM251 189h60v1h-60zM2 190h33v1h-33zM64 190h22v1h-22zM145 190h34v1h-34zM251 190h60v1h-60zM2 191h33v1h-33zM64 191h22v1h-22zM146 191h33v1h-33zM251 191h60v1h-60zM2 192h33v1h-33zM64 192h22v1h-22zM147 192h32v1h-32zM251 192h61v1h-61zM1 193h33v1h-33zM65 193h21v1h-21zM148 193h31v1h-31zM251 193h61v1h-61zM1 194h33v1h-33zM65 194h21v1h-21zM150 194h29v1h-29zM251 194h61v1h-61zM1 195h33v1h-33zM65 195h21v1h-21zM151 195h29v1h-29zM251 195h61v1h-61zM1 196h33v1h-33zM65 196h21v1h-21zM153 196h27v1h-27zM251 196h62v1h-62zM1 197h33v1h-33zM66 197h20v1h-20zM156 197h25v1h-25zM251 197h62v1h-62zM1 198h33v1h-33zM66 198h20v1h-20zM157 198h25v1h-25zM251 198h62v1h-62zM0 199h34v1h-34zM66 199h20v1h-20zM157 199h26v1h-26zM251 199h62v1h-62zM0 200h35v1h-35zM67 200h19v1h-19zM157 200h26v1h-26zM251 200h62v1h-62zM0 201h35v1h-35zM67 201h19v1h-19zM157 201h25v1h-25zM251 201h62v1h-62zM0 202h36v1h-36zM67 202h20v1h-20zM157 202h25v1h-25zM251 202h63v1h-63zM0 203h36v1h-36zM68 203h19v1h-19zM157 203h24v1h-24zM251 203h63v1h-63zM0 204h36v1h-36zM68 204h19v1h-19zM157 204h24v1h-24zM251 204h63v1h-63zM0 205h37v1h-37zM68 205h19v1h-19zM157 205h23v1h-23zM251 205h63v1h-63zM0 206h37v1h-37zM69 206h18v1h-18zM157 206h23v1h-23zM251 206h63v1h-63zM0 207h38v1h-38zM69 207h19v1h-19zM157 207h22v1h-22zM251 207h63v1h-63zM0 208h39v1h-39zM70 208h18v1h-18zM157 208h22v1h-22zM252 208h62v1h-62zM0 209h39v1h-39zM70 209h18v1h-18zM157 209h22v1h-22zM252 209h62v1h-62zM0 210h40v1h-40zM71 210h18v1h-18zM157 210h22v1h-22zM252 210h62v1h-62zM0 211h40v1h-40zM72 211h17v1h-17zM157 211h21v1h-21zM252 211h62v1h-62zM0 212h41v1h-41zM72 212h18v1h-18zM157 212h21v1h-21zM252 212h30v1h-30zM284 212h30v1h-30zM0 213h42v1h-42zM73 213h17v1h-17zM157 213h21v1h-21zM252 213h28v1h-28zM284 213h30v1h-30zM0 214h42v1h-42zM73 214h18v1h-18zM157 214h21v1h-21zM252 214h26v1h-26zM284 214h30v1h-30zM0 215h43v1h-43zM74 215h17v1h-17zM157 215h21v1h-21zM252 215h24v1h-24zM284 215h30v1h-30zM0 216h43v1h-43zM75 216h17v1h-17zM158 216h20v1h-20zM252 216h22v1h-22zM284 216h30v1h-30zM0 217h44v1h-44zM75 217h18v1h-18zM158 217h20v1h-20zM253 217h20v1h-20zM284 217h30v1h-30zM0 218h44v1h-44zM76 218h18v1h-18zM158 218h20v1h-20zM253 218h18v1h-18zM284 218h30v1h-30zM0 219h45v1h-45zM77 219h17v1h-17zM158 219h20v1h-20zM253 219h17v1h-17zM284 219h30v1h-30zM0 220h45v1h-45zM78 220h17v1h-17zM158 220h20v1h-20zM253 220h15v1h-15zM284 220h30v1h-30zM0 221h45v1h-45zM79 221h17v1h-17zM159 221h19v1h-19zM254 221h13v1h-13zM284 221h30v1h-30zM0 222h45v1h-45zM80 222h17v1h-17zM159 222h20v1h-20zM254 222h11v1h-11zM284 222h30v1h-30zM0 223h46v1h-46zM81 223h17v1h-17zM159 223h20v1h-20zM255 223h9v1h-9zM284 223h29v1h-29zM0 224h46v1h-46zM82 224h18v1h-18zM160 224h19v1h-19zM256 224h5v1h-5zM284 224h29v1h-29zM0 225h46v1h-46zM83 225h18v1h-18zM160 225h19v1h-19zM284 225h29v1h-29zM0 226h46v1h-46zM84 226h19v1h-19zM160 226h20v1h-20zM283 226h30v1h-30zM0 227h46v1h-46zM86 227h19v1h-19zM161 227h19v1h-19zM283 227h30v1h-30zM1 228h45v1h-45zM87 228h20v1h-20zM161 228h20v1h-20zM283 228h29v1h-29zM1 229h45v1h-45zM88 229h21v1h-21zM161 229h20v1h-20zM283 229h29v1h-29zM1 230h45v1h-45zM90 230h21v1h-21zM162 230h20v1h-20zM283 230h29v1h-29zM1 231h45v1h-45zM92 231h22v1h-22zM162 231h20v1h-20zM283 231h29v1h-29zM1 232h45v1h-45zM94 232h23v1h-23zM163 232h20v1h-20zM283 232h29v1h-29zM1 233h45v1h-45zM96 233h25v1h-25zM163 233h21v1h-21zM282 233h29v1h-29zM2 234h44v1h-44zM98 234h27v1h-27zM164 234h20v1h-20zM282 234h29v1h-29zM2 235h43v1h-43zM101 235h30v1h-30zM164 235h21v1h-21zM282 235h29v1h-29zM2 236h43v1h-43zM104 236h34v1h-34zM165 236h21v1h-21zM282 236h28v1h-28zM2 237h42v1h-42zM107 237h33v1h-33zM166 237h21v1h-21zM282 237h28v1h-28zM2 238h41v1h-41zM113 238h22v1h-22zM166 238h22v1h-22zM281 238h29v1h-29zM3 239h39v1h-39zM167 239h22v1h-22zM281 239h28v1h-28zM3 240h37v1h-37zM168 240h22v1h-22zM281 240h28v1h-28zM3 241h35v1h-35zM169 241h23v1h-23zM281 241h28v1h-28zM3 242h32v1h-32zM170 242h23v1h-23zM280 242h28v1h-28zM3 243h30v1h-30zM171 243h24v1h-24zM280 243h28v1h-28zM4 244h29v1h-29zM172 244h24v1h-24zM280 244h28v1h-28zM4 245h29v1h-29zM173 245h26v1h-26zM279 245h28v1h-28zM4 246h29v1h-29zM174 246h28v1h-28zM279 246h28v1h-28zM5 247h28v1h-28zM176 247h29v1h-29zM226 247h4v1h-4zM279 247h27v1h-27zM5 248h28v1h-28zM177 248h34v1h-34zM220 248h7v1h-7zM278 248h28v1h-28zM5 249h28v1h-28zM179 249h45v1h-45zM278 249h27v1h-27zM5 250h28v1h-28zM181 250h39v1h-39zM278 250h27v1h-27zM6 251h27v1h-27zM184 251h33v1h-33zM277 251h27v1h-27zM6 252h27v1h-27zM187 252h25v1h-25zM277 252h27v1h-27zM6 253h27v1h-27zM194 253h11v1h-11zM276 253h27v1h-27zM7 254h26v1h-26zM276 254h26v1h-26zM7 255h26v1h-26zM276 255h26v1h-26zM7 256h26v1h-26zM275 256h26v1h-26zM8 257h25v1h-25zM275 257h26v1h-26zM8 258h26v1h-26zM274 258h26v1h-26zM8 259h26v1h-26zM274 259h25v1h-25zM9 260h25v1h-25zM273 260h26v1h-26zM9 261h25v1h-25zM272 261h26v1h-26zM10 262h24v1h-24zM272 262h25v1h-25zM10 263h24v1h-24zM271 263h25v1h-25zM10 264h24v1h-24zM270 264h26v1h-26zM11 265h24v1h-24zM270 265h25v1h-25zM11 266h24v1h-24zM269 266h25v1h-25zM12 267h23v1h-23zM268 267h25v1h-25zM12 268h23v1h-23zM267 268h25v1h-25zM13 269h23v1h-23zM267 269h25v1h-25zM13 270h23v1h-23zM266 270h25v1h-25zM14 271h22v1h-22zM265 271h25v1h-25zM14 272h22v1h-22zM264 272h25v1h-25zM15 273h22v1h-22zM263 273h25v1h-25zM15 274h22v1h-22zM262 274h25v1h-25zM16 275h21v1h-21zM260 275h26v1h-26zM17 276h21v1h-21zM259 276h25v1h-25zM17 277h21v1h-21zM258 277h25v1h-25zM18 278h21v1h-21zM257 278h25v1h-25zM19 279h20v1h-20zM255 279h26v1h-26zM19 280h21v1h-21zM253 280h27v1h-27zM20 281h20v1h-20zM252 281h26v1h-26zM21 282h20v1h-20zM249 282h28v1h-28zM21 283h20v1h-20zM181 283h2v1h-2zM247 283h29v1h-29zM22 284h20v1h-20zM182 284h5v1h-5zM245 284h29v1h-29zM23 285h20v1h-20zM183 285h8v1h-8zM242 285h31v1h-31zM24 286h20v1h-20zM185 286h11v1h-11zM238 286h33v1h-33zM24 287h20v1h-20zM187 287h16v1h-16zM233 287h36v1h-36zM25 288h20v1h-20zM189 288h25v1h-25zM224 288h43v1h-43zM26 289h20v1h-20zM191 289h74v1h-74zM27 290h20v1h-20zM194 290h69v1h-69zM28 291h20v1h-20zM196 291h65v1h-65zM29 292h21v1h-21zM199 292h59v1h-59zM30 293h21v1h-21zM202 293h53v1h-53zM31 294h22v1h-22zM206 294h47v1h-47zM32 295h23v1h-23zM99 295h3v1h-3zM210 295h39v1h-39zM34 296h23v1h-23zM94 296h7v1h-7zM214 296h31v1h-31zM35 297h26v1h-26zM89 297h10v1h-10zM221 297h17v1h-17zM36 298h30v1h-30zM83 298h14v1h-14zM38 299h57v1h-57zM39 300h54v1h-54zM41 301h50v1h-50zM43 302h46v1h-46zM45 303h41v1h-41zM48 304h36v1h-36zM50 305h30v1h-30zM53 306h23v1h-23zM61 307h7v1h-7z" />
  </g>
  <text class="talon-mark" x="72" y="17" font-family="-apple-system, BlinkMacSystemFont, 'Segoe UI', Helvetica, Arial, sans-serif" font-size="14" font-weight="500">1</text>
  <text class="talon-mark" x="90" y="51" font-family="-apple-system, BlinkMacSystemFont, 'Segoe UI', Helvetica, Arial, sans-serif" font-size="42" font-weight="700">Talon</text>
</svg>
